<?xml version="1.0" encoding="UTF-8"?><svg id="Layer_1" xmlns="http://www.w3.org/2000/svg" xmlns:xlink="http://www.w3.org/1999/xlink" viewBox="0 0 376.96 64"><defs><style>.cls-1{font-family:AdobeClean-BoldSemiCn, 'Adobe Clean';font-size:52.69px;font-weight:700;}.cls-2{letter-spacing:-.01em;}.cls-2,.cls-3{fill:#231f20;}.cls-4{fill:url(#linear-gradient);}.cls-5{fill:#ed1c24;}.cls-6{fill:#fff;}.cls-7{letter-spacing:0em;}.cls-7,.cls-8,.cls-9{fill:#ddd;}.cls-8{letter-spacing:.01em;}.cls-9{letter-spacing:0em;}</style><linearGradient id="linear-gradient" x1="37.35" y1="32.02" x2="376.96" y2="32.02" gradientUnits="userSpaceOnUse"><stop offset="0" stop-color="#231f20"/><stop offset=".31" stop-color="#fff"/></linearGradient></defs><rect class="cls-4" x="37.35" y=".55" width="339.61" height="62.94"/><rect class="cls-5" width="39" height="64"/><polygon class="cls-6" points="23.04 13.34 32.64 13.34 32.64 36.34 23.04 13.34"/><polygon class="cls-6" points="16.27 13.34 6.65 13.34 6.65 36.34 16.27 13.34"/><polygon class="cls-6" points="19.65 21.82 25.77 36.34 21.76 36.34 19.93 31.71 15.45 31.71 19.65 21.82"/><path class="cls-6" d="M8.47,46.93l-.42,2c-.01.08-.04.09-.1.09h-1.22c-.08,0-.1-.03-.09-.13l1.68-7.24c.05-.22.05-.33.05-.71,0-.05.03-.08.08-.08h1.74c.06,0,.09.03.1.09l1.96,7.96c.01.08-.01.1-.08.1h-1.36c-.06,0-.1-.04-.1-.09l-.45-2h-1.79ZM10,45.56c-.18-.94-.51-2.35-.64-3.26h-.01c-.13.88-.37,2.13-.59,3.26h1.24Z"/><path class="cls-6" d="M12.47,45.91c0-1.85,1.09-3.28,2.82-3.28h.2v-2.18s.03-.06.08-.06h1.35c.05,0,.06.03.06.06v7.29c0,.19-.01.44.04.85,0,.04,0,.06-.05.09-.52.27-1.19.44-1.84.44-1.6,0-2.67-1.04-2.67-3.22ZM15.49,43.98c-.06-.03-.13-.04-.28-.04-.71,0-1.24.65-1.24,1.91,0,1.34.53,1.9,1.23,1.9.09,0,.22-.01.29-.04v-3.73Z"/><path class="cls-6" d="M22.41,45.86c0,2-.84,3.27-2.3,3.27-1.65,0-2.3-1.44-2.3-3.28s.84-3.22,2.33-3.22,2.28,1.19,2.28,3.23ZM19.28,45.86c0,1.18.25,1.95.82,1.95s.81-.66.81-1.94c0-1.19-.2-1.92-.8-1.92-.52,0-.84.6-.84,1.91Z"/><path class="cls-6" d="M24.63,40.39c.05,0,.06.03.06.08v2.24c.18-.04.39-.08.68-.08,1.32,0,2.32,1.01,2.32,2.98,0,2.29-1.3,3.52-2.94,3.52-.47,0-.95-.06-1.47-.23-.04-.01-.08-.05-.08-.1v-8.33c0-.05.03-.08.08-.08h1.34ZM25.15,43.97c-.1,0-.32.01-.46.06v3.73c.1.03.19.03.27.03.57,0,1.24-.58,1.25-2.15.01-1.23-.48-1.67-1.06-1.67Z"/><path class="cls-6" d="M29.75,46.22c0,.97.37,1.57,1.39,1.57.34,0,.62-.05.96-.18.06-.03.1-.03.1.06v1.05c0,.09-.03.14-.09.16-.35.19-.84.23-1.25.23-1.86,0-2.58-1.37-2.58-3.15,0-1.9.84-3.34,2.32-3.34,1.56,0,2.01,1.38,2.01,2.51,0,.41-.04.8-.06.95-.01.06-.05.09-.11.1-.13.01-.52.04-1.2.04h-1.48ZM30.82,45.03c.24,0,.34,0,.38-.01.01-.06.01-.09.01-.14,0-.48-.15-.99-.67-.99s-.71.52-.77,1.14h1.05Z"/><text class="cls-1" transform="translate(42.47 48.12)"><tspan class="cls-7" x="0" y="0">P</tspan><tspan class="cls-9" x="27.92" y="0">r</tspan><tspan class="cls-8" x="45.84" y="0">e</tspan><tspan class="cls-3" x="71.49" y="0">fl</tspan><tspan class="cls-2" x="99.57" y="0">i</tspan><tspan class="cls-3" x="111.48" y="0">ght</tspan></text></svg>